Genre:Action | Crime | Thriller
Language:English
IMDb:http://www.imdb.com/title/tt1135084/
Source:Imagine-Thanks
Sample:Yes
Subtitles;Romana

General
Complete name :Takers CAM NEW SOURCE Cam XivD Feel-Free
Format : AVI
Format/Info : Audio Video Interleave
File size : 1.28 GiB
Duration : 1h 41mn
Video #0
Muxing mode : Packed bitstream
Codec ID : XVID
Codec ID/Hint : XviD
Duration : 1h 41mn
Bit rate : 1 411 Kbps
Width : 688 pixels
Height : 288 pixels
Display aspect ratio : 2.35:1
Frame rate : 23.976 fps
Resolution : 24 bits
Colorimetry : 4:2:0
Scan type : Progressive
Bits/(Pixel*Frame) : 0.297
Stream size : 1.00 GiB (78%)
Writing library : XviD 1.2.1 (UTC 2008-12-04)
Audio #1
ID : 1
Format : AC-3
Format/Info : Audio Coding 3
Codec ID : 2000
Duration : 1h 41mn
Bit rate mode : Constant
Bit rate : 384 Kbps
Channel(s) : 2 channels
Channel positions : L R
Sampling rate : 48.0 KHz
Stream size : 280 MiB (21%)
Alignment : Aligned on interleaves
Interleave, duration : 42 ms (1.00 video frame)
Interleave, preload duration : 512 ms

Plot
A group of bank robbers find their $20 million plan interrupted by a hard-boiled detective